# xmcd
#
# Track frame offsets:
#	150
#	21956
#	43450
#	66504
#	87993
#	111000
#	120851
#	146553
#	158209
#	179811
#	199691
#	223648
#
# Disc length: 3429 seconds
#
# Revision: 1
# Processed by: cddbd v1.5.2PL0 Copyright (c) Steve Scherf et al.
# Submitted via: audiograbber 1.83.01
#
DISCID=b40d630c
DTITLE=Gonzalo Grau Y La Clave Secreta - Frutero Moderno
DYEAR=2008
DGENRE=Salsa
TTITLE0=Frutero Moderno
TTITLE1=Calle Luna, Calle Sol
TTITLE2=Siácara
TTITLE3=Sabor, Swing Y Sahoco
TTITLE4=Buche Y Pluma
TTITLE5=Amanecer En Calithea
TTITLE6=A La Griega
TTITLE7=La Polémica De La Mandarina
TTITLE8=Fachada O Nada
TTITLE9=Mujer Divina
TTITLE10=Abre Que Voy
TTITLE11=Alarma
EXTD=YEAR: 2008
EXTT0=
EXTT1=
EXTT2=
EXTT3=
EXTT4=
EXTT5=
EXTT6=
EXTT7=
EXTT8=
EXTT9=
EXTT10=
EXTT11=
PLAYORDER=
